<svg width="224.280762" height="72.000000" viewBox="0 0 224.281 72" fill="none" xmlns="http://www.w3.org/2000/svg" xmlns:xlink="http://www.w3.org/1999/xlink">
	<desc>
			Created with Pixso.
	</desc>
	<defs/>
	<rect width="224.000000" height="72.000000" transform="translate(0.280762 0.000000)" fill="#FFFFFF" fill-opacity="0"/>
	<path d="M69.8193 36.2906C68.7188 36.9225 67.3833 37.4219 65.814 37.7888C64.2441 38.1558 62.6133 38.3392 60.9214 38.3392C58.6382 38.3392 56.6919 38.064 55.0815 37.5137Q52.6963 36.6881 51.4731 35.2204C50.6782 34.2419 50.2808 33.1106 50.2808 31.8264Q50.2808 30.7015 50.6909 29.7546Q50.8945 29.2857 51.1982 28.8604Q51.3096 28.7046 51.4312 28.5573Q52.312 27.4908 53.7358 26.8729Q52.8359 26.4119 52.2354 25.6987L52.2354 25.6987Q51.9995 25.4185 51.8096 25.0995Q51.5801 24.6846 51.4331 24.2423L51.4326 24.2422Q51.1675 23.4462 51.1675 22.5616Q51.1675 21.8248 51.3574 21.1407Q51.625 20.1784 52.2681 19.3205Q53.3994 17.8528 55.6929 16.9661Q57.9863 16.0793 61.3496 16.0793Q63.0327 16.0793 64.6768 16.3323L64.6772 16.3324Q65.0938 16.3965 65.5078 16.4769Q67.5566 16.8743 69.1162 17.5471L67.4648 22.0724Q65.605 21.2524 63.6665 20.9688Q62.6416 20.8187 61.5942 20.8187Q59.4233 20.8187 58.353 21.3997Q57.6479 21.7622 57.4077 22.3237Q57.2827 22.6147 57.2827 22.9591Q57.2827 23.5505 57.5591 23.9512Q58.1401 24.7937 59.9429 24.7937L65.9971 24.7937L65.9971 29.4108L59.5454 29.4108Q57.9863 29.4108 57.1909 29.9306Q56.833 30.1511 56.6362 30.4709Q56.396 30.8608 56.396 31.3983Q56.396 31.716 56.5044 31.9908Q56.751 32.6154 57.5581 33.0189C58.3325 33.4062 59.5352 33.5999 61.166 33.5999C62.3281 33.5999 63.5205 33.447 64.7437 33.1412C65.9868 32.815 67.0674 32.3768 67.9849 31.8264L69.8193 36.2906ZM170.963 21.3386L170.963 34.884C170.963 37.9621 170.127 40.2656 168.456 41.7944C166.784 43.3436 164.379 44.1182 161.24 44.1182C159.609 44.1182 158.08 43.9348 156.653 43.5679C155.226 43.2009 154.014 42.6608 153.015 41.9473L155.125 37.8806C155.797 38.431 156.643 38.859 157.662 39.1648C158.702 39.491 159.721 39.6541 160.72 39.6541C162.249 39.6541 163.37 39.3177 164.083 38.645C164.797 37.9723 165.154 36.9734 165.154 35.6485L165.154 35.0981C164.032 36.4027 162.392 37.055 160.231 37.055C158.763 37.055 157.408 36.7289 156.164 36.0765C154.92 35.4039 153.932 34.4662 153.198 33.2635Q153.051 33.0189 152.924 32.7645Q152.097 31.1109 152.097 29.0439Q152.097 27.0295 152.903 25.4181Q153.039 25.1461 153.198 24.8854Q153.808 23.8698 154.651 23.1166Q155.332 22.5092 156.164 22.0724C157.408 21.3997 158.763 21.0634 160.231 21.0634Q162.925 21.0634 164.525 22.3863Q165.032 22.8052 165.429 23.3566L165.429 21.3386L170.963 21.3386ZM85.4033 29.2274C87.2988 29.8593 88.2466 31.1639 88.2466 33.1412C88.2466 34.6293 87.666 35.8013 86.5039 36.6575C85.3418 37.4933 83.6299 37.9111 81.3672 37.9111L72.041 37.9111L72.041 21.3386L80.939 21.3386C83.0996 21.3386 84.7715 21.7156 85.9536 22.4699C87.1562 23.2241 87.7578 24.2841 87.7578 25.6499Q87.7578 26.5201 87.4321 27.2437Q87.3115 27.5117 87.146 27.7596C86.7383 28.3712 86.1572 28.8604 85.4033 29.2274ZM98.9478 32.0098L96.9912 32.0098L96.9912 37.9111L91.1816 37.9111L91.1816 21.3386L96.9912 21.3386L96.9912 27.4539L99.0703 27.4539L103.137 21.3386L109.283 21.3386L103.718 29.2885L109.65 37.9111L102.801 37.9111L98.9478 32.0098ZM128.454 21.3386L128.454 37.9111L122.645 37.9111L122.645 25.9556L118.456 25.9556L118.333 28.4935C118.252 30.6543 118.038 32.4379 117.691 33.8444C117.345 35.251 116.774 36.3517 115.979 37.1467Q115.815 37.3059 115.636 37.4432Q114.501 38.3087 112.708 38.3087C111.994 38.3087 111.056 38.1761 109.894 37.9111L110.139 33.1718C110.506 33.2125 110.75 33.2329 110.873 33.2329C111.504 33.2329 111.983 33.0291 112.31 32.6214C112.636 32.2137 112.86 31.6735 112.982 31.0008C113.105 30.3077 113.187 29.3904 113.227 28.2489L113.472 21.3386L128.454 21.3386ZM149.42 21.3386L149.42 37.9111L143.886 37.9111L143.886 36.1683C143.274 36.8206 142.541 37.32 141.685 37.6666Q141.519 37.7354 141.35 37.795Q140.241 38.1863 138.994 38.1863C136.833 38.1863 135.11 37.5544 133.826 36.2906Q131.931 34.3948 131.931 30.6033L131.931 21.3386L137.74 21.3386L137.74 29.6555C137.74 32.0404 138.667 33.2329 140.522 33.2329C141.44 33.2329 142.184 32.9169 142.755 32.285C143.325 31.6328 143.611 30.6441 143.611 29.3191L143.611 21.3386L149.42 21.3386ZM77.2393 28.0043L80.4189 28.0043C81.7646 28.0043 82.437 27.5049 82.437 26.506C82.437 25.548 81.7646 25.0689 80.4189 25.0689L77.2393 25.0689L77.2393 28.0043ZM161.606 32.4379C162.646 32.4379 163.502 32.1219 164.175 31.4901C164.868 30.8581 165.215 30.0427 165.215 29.0439C165.215 28.045 164.878 27.2399 164.206 26.6284C163.533 25.9964 162.667 25.6804 161.606 25.6804C160.547 25.6804 159.67 25.9964 158.977 26.6284C158.304 27.2399 157.968 28.045 157.968 29.0439C157.968 30.0427 158.314 30.8581 159.008 31.4901C159.701 32.1219 160.567 32.4379 161.606 32.4379ZM80.8472 34.1502C82.2539 34.1502 82.957 33.6406 82.957 32.6214Q82.957 32.0745 82.6948 31.7233Q82.2241 31.0925 80.9082 31.0925L77.2393 31.0925L77.2393 34.1502L80.8472 34.1502ZM59.7065 46.0099L59.7065 55.9886L56.9126 55.9886L56.9126 48.2479L53.1206 48.2479L53.1206 55.9886L50.3408 55.9886L50.3408 46.0099L59.7065 46.0099ZM65.8169 48.1339C66.6631 48.1339 67.3994 48.2955 68.0269 48.6186C68.6538 48.9417 69.1338 49.4074 69.4663 50.0156C69.8086 50.6143 69.9795 51.3176 69.9795 52.1254C69.9795 52.9237 69.8228 53.627 69.5093 54.2352C69.1958 54.8339 68.7539 55.2996 68.1836 55.6323Q68.1743 55.6373 68.1655 55.6424Q67.3164 56.1169 66.2021 56.1169C65.3184 56.1169 64.6245 55.8461 64.1206 55.3044L64.1206 58.7542L61.4121 58.7542L61.4121 52.1539Q61.4121 51.063 61.8618 50.2087L61.8628 50.2068Q61.9062 50.1243 61.9541 50.0441C62.3149 49.4359 62.8281 48.9655 63.4937 48.6329C64.1587 48.3002 64.9331 48.1339 65.8169 48.1339ZM75.0947 56.1169C74.2681 56.1169 73.522 55.9459 72.8569 55.6038C72.1914 55.2616 71.6689 54.7864 71.2886 54.1782C70.918 53.5699 70.7329 52.881 70.7329 52.1111C70.7329 51.3509 70.918 50.6666 71.2886 50.0584C71.6689 49.4501 72.187 48.9797 72.8428 48.6471C73.5078 48.305 74.2588 48.1339 75.0947 48.1339C75.9312 48.1339 76.6821 48.305 77.3472 48.6471C78.0127 48.9797 78.5303 49.4501 78.9009 50.0584C79.272 50.6571 79.457 51.3414 79.457 52.1111Q79.457 52.9896 79.1353 53.7278L79.1353 53.7283Q79.0342 53.9601 78.9009 54.1782C78.5303 54.7864 78.0127 55.2616 77.3472 55.6038C76.6821 55.9459 75.9312 56.1169 75.0947 56.1169ZM84.8188 54.0499C85.1895 54.0499 85.5078 53.9976 85.7739 53.8931C86.0493 53.7886 86.3252 53.6175 86.6006 53.3799L88.0117 54.8624C87.2803 55.6988 86.187 56.1169 84.7329 56.1169C83.8301 56.1169 83.0366 55.9459 82.3525 55.6038C81.668 55.2616 81.1362 54.7864 80.7559 54.1782C80.3853 53.5699 80.1997 52.881 80.1997 52.1111C80.1997 51.3509 80.3853 50.6714 80.7559 50.0726C81.1265 49.4644 81.6348 48.9893 82.2812 48.6471C82.937 48.305 83.6685 48.1339 84.4766 48.1339Q85.4458 48.1339 86.2671 48.4824Q86.4004 48.5388 86.5293 48.6044C87.1567 48.9084 87.6553 49.3599 88.0259 49.9586C88.397 50.5479 88.582 51.2511 88.582 52.0684L83.0654 53.1233C83.3599 53.741 83.9443 54.0499 84.8188 54.0499ZM109.446 48.1339C110.396 48.1339 111.152 48.419 111.713 48.9893C112.283 49.5594 112.568 50.4196 112.568 51.5695L112.568 55.9886L109.859 55.9886L109.859 52.0114C109.859 51.4697 109.755 51.0705 109.546 50.8139C109.346 50.5573 109.061 50.429 108.69 50.429C108.282 50.429 107.954 50.5716 107.707 50.8567C107.46 51.1418 107.336 51.5742 107.336 52.1539L107.336 55.9886L104.628 55.9886L104.628 52.0114C104.628 50.9565 104.238 50.429 103.459 50.429C103.041 50.429 102.708 50.5716 102.461 50.8567C102.214 51.1418 102.09 51.5742 102.09 52.1539L102.09 55.9886L99.3818 55.9886L99.3818 48.2622L101.962 48.2622L101.962 49.0748C102.247 48.7612 102.584 48.5283 102.974 48.3763C103.374 48.2147 103.806 48.1339 104.271 48.1339C104.813 48.1339 105.298 48.2337 105.726 48.4333C106.153 48.6329 106.5 48.937 106.766 49.3456C107.07 48.956 107.455 48.6566 107.921 48.4475C108.387 48.2385 108.895 48.1339 109.446 48.1339ZM141.033 54.0499C141.403 54.0499 141.722 53.9976 141.988 53.8931C142.264 53.7886 142.539 53.6175 142.814 53.3799L144.226 54.8624C143.494 55.6988 142.401 56.1169 140.947 56.1169C140.044 56.1169 139.251 55.9459 138.566 55.6038C137.882 55.2616 137.35 54.7864 136.97 54.1782C136.599 53.5699 136.414 52.881 136.414 52.1111C136.414 51.3509 136.599 50.6714 136.97 50.0726C137.34 49.4644 137.849 48.9893 138.495 48.6471C139.151 48.305 139.883 48.1339 140.69 48.1339C141.441 48.1339 142.125 48.2907 142.743 48.6044C143.371 48.9084 143.87 49.3599 144.24 49.9586C144.611 50.5479 144.796 51.2511 144.796 52.0684L139.279 53.1233C139.574 53.741 140.158 54.0499 141.033 54.0499ZM154.114 56.1169C153.258 56.1169 152.493 55.9459 151.818 55.6038C151.144 55.2616 150.616 54.7864 150.236 54.1782C149.866 53.5699 149.68 52.881 149.68 52.1111C149.68 51.3414 149.866 50.6571 150.236 50.0584C150.616 49.4501 151.144 48.9797 151.818 48.6471C152.493 48.305 153.258 48.1339 154.114 48.1339C154.988 48.1339 155.744 48.324 156.38 48.7041C157.017 49.0748 157.468 49.5927 157.734 50.2579L155.639 51.3271C155.288 50.6334 154.774 50.2865 154.1 50.2865Q153.663 50.2865 153.314 50.461Q153.082 50.5773 152.888 50.7712C152.574 51.0943 152.417 51.541 152.417 52.1111C152.417 52.6909 152.574 53.147 152.888 53.4797C153.211 53.8028 153.615 53.9644 154.1 53.9644C154.774 53.9644 155.288 53.6175 155.639 52.9237L157.734 53.9929C157.468 54.6581 157.017 55.1808 156.38 55.561C155.744 55.9316 154.988 56.1169 154.114 56.1169ZM172.518 56.1169C171.662 56.1169 170.897 55.9459 170.223 55.6038C169.548 55.2616 169.021 54.7864 168.64 54.1782C168.27 53.5699 168.084 52.881 168.084 52.1111C168.084 51.3414 168.27 50.6571 168.64 50.0584C169.021 49.4501 169.548 48.9797 170.223 48.6471C170.897 48.305 171.662 48.1339 172.518 48.1339C173.392 48.1339 174.147 48.324 174.784 48.7041C175.421 49.0748 175.873 49.5927 176.139 50.2579L174.043 51.3271C173.691 50.6334 173.178 50.2865 172.503 50.2865Q172.067 50.2865 171.718 50.4609Q171.485 50.5773 171.292 50.7712C170.978 51.0943 170.821 51.541 170.821 52.1111C170.821 52.6909 170.978 53.147 171.292 53.4797C171.615 53.8028 172.019 53.9644 172.503 53.9644C173.178 53.9644 173.691 53.6175 174.043 52.9237L176.139 53.9929C175.873 54.6581 175.421 55.1808 174.784 55.561C174.147 55.9316 173.392 56.1169 172.518 56.1169ZM187.335 48.1339C188.286 48.1339 189.042 48.419 189.602 48.9893C190.172 49.5594 190.458 50.4196 190.458 51.5695L190.458 55.9886L187.749 55.9886L187.749 52.0114C187.749 51.4697 187.645 51.0705 187.436 50.8139C187.236 50.5573 186.951 50.429 186.58 50.429C186.171 50.429 185.844 50.5716 185.597 50.8567C185.35 51.1418 185.226 51.5742 185.226 52.1539L185.226 55.9886L182.517 55.9886L182.517 52.0114C182.517 50.9565 182.127 50.429 181.348 50.429C180.93 50.429 180.598 50.5716 180.351 50.8567C180.104 51.1418 179.98 51.5742 179.98 52.1539L179.98 55.9886L177.271 55.9886L177.271 48.2622L179.852 48.2622L179.852 49.0748C180.137 48.7612 180.474 48.5283 180.864 48.3763C181.263 48.2147 181.695 48.1339 182.161 48.1339C182.703 48.1339 183.188 48.2337 183.615 48.4333C184.042 48.6329 184.39 48.937 184.656 49.3456C184.96 48.956 185.345 48.6566 185.811 48.4475C186.276 48.2385 186.785 48.1339 187.335 48.1339ZM196.189 54.0499C196.56 54.0499 196.878 53.9976 197.144 53.8931C197.419 53.7886 197.695 53.6175 197.971 53.3799L199.382 54.8624C198.65 55.6988 197.557 56.1169 196.103 56.1169C195.2 56.1169 194.407 55.9459 193.723 55.6038C193.039 55.2616 192.506 54.7864 192.126 54.1782Q191.993 53.96 191.892 53.7278Q191.57 52.9896 191.57 52.1111C191.57 51.3509 191.755 50.6714 192.126 50.0726C192.497 49.4644 193.005 48.9893 193.651 48.6471C194.307 48.305 195.039 48.1339 195.847 48.1339C196.598 48.1339 197.282 48.2907 197.899 48.6044C198.527 48.9084 199.025 49.3599 199.396 49.9586C199.767 50.5479 199.952 51.2511 199.952 52.0684L194.436 53.1233C194.73 53.741 195.314 54.0499 196.189 54.0499ZM93.4946 53.2374L92.582 53.2374L92.582 55.9886L89.8735 55.9886L89.8735 48.2622L92.582 48.2622L92.582 51.1133L93.5513 51.1133L95.4473 48.2622L98.313 48.2622L95.7183 51.9686L98.4839 55.9886L95.2905 55.9886L93.4946 53.2374ZM114.208 48.2622L116.902 48.2622L116.902 51.1276L119.682 51.1276L119.682 48.2622L122.391 48.2622L122.391 55.9886L119.682 55.9886L119.682 53.2801L116.902 53.2801L116.902 55.9886L114.208 55.9886L114.208 48.2622ZM127.896 56.2167C125.339 56.2167 124.061 55.119 124.061 52.9237L124.061 48.2622L126.755 48.2622L126.755 50.7141C126.955 50.5811 127.221 50.4718 127.553 50.3863C127.896 50.3007 128.285 50.2579 128.722 50.2579C129.672 50.2579 130.418 50.5003 130.96 50.985C131.502 51.4601 131.773 52.1682 131.773 53.109C131.773 54.1259 131.421 54.9005 130.718 55.4327C130.024 55.9554 129.083 56.2167 127.896 56.2167ZM132.414 48.2622L135.123 48.2622L135.123 55.9886L132.414 55.9886L132.414 48.2622ZM166.822 48.2622L166.822 55.9886L164.242 55.9886L164.242 55.1761C163.957 55.4802 163.614 55.713 163.215 55.8746C162.826 56.0361 162.408 56.1169 161.961 56.1169C160.954 56.1169 160.15 55.8223 159.552 55.2331C158.962 54.6439 158.668 53.76 158.668 52.5816L158.668 48.2622L161.376 48.2622L161.376 52.1396C161.376 53.2516 161.809 53.8076 162.674 53.8076C163.101 53.8076 163.448 53.6603 163.714 53.3657C163.98 53.0615 164.113 52.6006 164.113 51.9828L164.113 48.2622L166.822 48.2622ZM208.742 55.9886L208.742 51.9258L206.761 55.3044L205.606 55.3044L203.682 51.8688L203.682 55.9886L201.244 55.9886L201.244 48.2622L204.095 48.2622L206.248 52.2965L208.614 48.2622L211.166 48.2622L211.18 55.9886L208.742 55.9886ZM216.685 56.2167C214.128 56.2167 212.851 55.119 212.851 52.9237L212.851 48.2622L215.545 48.2622L215.545 50.7141Q215.844 50.5146 216.343 50.3863C216.685 50.3007 217.075 50.2579 217.512 50.2579C218.462 50.2579 219.208 50.5003 219.75 50.985C220.292 51.4601 220.562 52.1682 220.562 53.109C220.562 54.1259 220.211 54.9005 219.508 55.4327C218.814 55.9554 217.873 56.2167 216.685 56.2167ZM221.204 48.2622L223.913 48.2622L223.913 55.9886L221.204 55.9886L221.204 48.2622ZM84.4907 50.0584C84.0249 50.0584 83.645 50.2057 83.3501 50.5003C83.0557 50.7854 82.8896 51.1988 82.8516 51.7405L85.9878 51.1276C85.8926 50.8044 85.7119 50.5479 85.4458 50.3577C85.1797 50.1582 84.8613 50.0584 84.4907 50.0584ZM140.705 50.0584C140.239 50.0584 139.859 50.2057 139.564 50.5003C139.27 50.7854 139.104 51.1988 139.065 51.7405L142.202 51.1276C142.106 50.8044 141.926 50.5479 141.66 50.3577C141.394 50.1582 141.076 50.0584 140.705 50.0584ZM195.861 50.0584C195.395 50.0584 195.015 50.2057 194.721 50.5003C194.426 50.7854 194.26 51.1988 194.222 51.7405L197.358 51.1276C197.263 50.8044 197.082 50.5479 196.816 50.3577C196.55 50.1582 196.231 50.0584 195.861 50.0584ZM65.689 53.9644C66.1733 53.9644 66.563 53.798 66.8579 53.4655C67.1616 53.1233 67.314 52.6766 67.314 52.1254C67.314 51.5742 67.1616 51.1323 66.8579 50.7997C66.563 50.4575 66.1733 50.2865 65.689 50.2865C65.2041 50.2865 64.8145 50.4575 64.52 50.7997Q64.4736 50.8519 64.4321 50.9077Q64.0781 51.3852 64.0781 52.1254C64.0781 52.6862 64.2207 53.1328 64.5054 53.4655C64.8003 53.798 65.1948 53.9644 65.689 53.9644ZM75.0947 53.9644C75.5703 53.9644 75.96 53.8028 76.2637 53.4797C76.5679 53.147 76.7202 52.6909 76.7202 52.1111C76.7202 51.541 76.5679 51.0943 76.2637 50.7712C75.96 50.4481 75.5703 50.2865 75.0947 50.2865C74.6196 50.2865 74.23 50.4481 73.9258 50.7712C73.6221 51.0943 73.4697 51.541 73.4697 52.1111C73.4697 52.6909 73.6221 53.147 73.9258 53.4797C74.23 53.8028 74.6196 53.9644 75.0947 53.9644ZM127.896 54.3635C128.266 54.3635 128.546 54.2542 128.736 54.0356C128.926 53.8171 129.021 53.5272 129.021 53.1661C129.021 52.8145 128.926 52.5388 128.736 52.3392C128.546 52.1396 128.271 52.0399 127.91 52.0399C127.653 52.0399 127.425 52.0874 127.225 52.1824C127.026 52.2775 126.869 52.4058 126.755 52.5673L126.755 53.1661C126.755 53.5367 126.85 53.8313 127.04 54.0499C127.23 54.259 127.515 54.3635 127.896 54.3635ZM216.685 54.3635C217.056 54.3635 217.336 54.2542 217.526 54.0356C217.716 53.8171 217.812 53.5272 217.812 53.1661C217.812 52.8145 217.716 52.5388 217.526 52.3392C217.336 52.1396 217.061 52.0399 216.699 52.0399C216.443 52.0399 216.215 52.0874 216.015 52.1824C215.815 52.2775 215.659 52.4058 215.545 52.5673L215.545 53.1661C215.545 53.5367 215.64 53.8313 215.83 54.0499C216.02 54.259 216.305 54.3635 216.685 54.3635Z" fill="#FFFFFF" fill-opacity="1.000000" fill-rule="evenodd"/>
	<rect width="38.117649" height="72.000000" fill="#FFFFFF" fill-opacity="0"/>
	<path d="M16.6313 24.2754L8.62549 42.7144L1.29102 42.7144L1.29102 44.3156L7.79932 44.3156C7.79932 44.3156 2.2207 56.7115 1.29102 59.0358C0.361328 61.36 3.15088 62.4447 3.15088 62.4447L0 71.9999L0.464844 71.9999L12.8608 44.3156L17.8711 44.3156L17.8711 46.3815C17.812 46.5722 17.9434 46.9252 18.8008 47.0257L18.8008 47.053C18.8921 47.053 18.978 47.0508 19.0586 47.0468C19.1396 47.0508 19.2256 47.053 19.3169 47.053L19.3169 47.0257C20.1743 46.9252 20.3057 46.5722 20.2466 46.3815L20.2466 44.3156L25.2568 44.3156L37.6528 71.9999L38.1177 71.9999L34.9668 62.4447C34.9668 62.4447 37.7559 61.36 36.8262 59.0358C35.8965 56.7115 30.3184 44.3156 30.3184 44.3156L36.8262 44.3156L36.8262 42.7144L29.4922 42.7144L21.4863 24.2754L16.6313 24.2754ZM19.0586 30.0931L13.6357 42.7144L17.8711 42.7144L17.8711 40.3385C17.8711 39.8513 18.5552 39.7451 19.0586 39.7546C19.5625 39.7451 20.2466 39.8513 20.2466 40.3385L20.2466 42.7144L24.4819 42.7144L19.0586 30.0931Z" fill="#FF9900" fill-opacity="1.000000" fill-rule="evenodd"/>
	<path d="M20.6602 0L17.561 0L17.561 7.78558C13.623 8.51361 10.6401 11.9658 10.6401 16.1147C10.6401 20.793 14.4326 24.5854 19.1108 24.5854C23.7891 24.5854 27.5815 20.793 27.5815 16.1147C27.5815 11.9658 24.5986 8.51361 20.6602 7.78558L20.6602 0ZM24.5854 16.1147C24.5854 19.1385 22.1343 21.5897 19.1108 21.5897C16.0869 21.5897 13.6357 19.1385 13.6357 16.1147C13.6357 13.0911 16.0869 10.6399 19.1108 10.6399C22.1343 10.6399 24.5854 13.0911 24.5854 16.1147Z" fill="#FFFFFF" fill-opacity="1.000000" fill-rule="evenodd"/>
</svg>
