<svg width="60.000000" height="60.000000" viewBox="0 0 60 60" fill="none" xmlns="http://www.w3.org/2000/svg" xmlns:xlink="http://www.w3.org/1999/xlink">
	<desc>
			Created with Pixso.
	</desc>
	<defs/>
	<path id="ok" d="M60 30C60 46.5685 46.5684 60 30 60C13.4316 60 0 46.5685 0 30C0 13.4315 13.4316 0 30 0C46.5684 0 60 13.4315 60 30ZM30.1836 9.14728C24.2002 9.14728 19.3501 13.9978 19.3501 19.9811C19.3501 25.9645 24.2002 30.8153 30.1836 30.8153C36.1675 30.8153 41.0176 25.9645 41.0176 19.9811C41.0176 13.9978 36.1675 9.14728 30.1836 9.14728ZM30.1836 24.4598C27.7104 24.4598 25.7056 22.4546 25.7056 19.9813C25.7056 17.5079 27.7104 15.5028 30.1836 15.5028C32.6572 15.5028 34.6621 17.5079 34.6621 19.9813C34.6621 22.4546 32.6572 24.4598 30.1836 24.4598ZM34.0083 39.4358C38.3457 38.5522 40.9448 36.4983 41.0825 36.3881C42.3516 35.3702 42.5552 33.5162 41.5376 32.2469C40.52 30.9778 38.666 30.7739 37.3965 31.7916C37.3696 31.8134 34.5977 33.9398 30.0366 33.9429C25.4756 33.9398 22.645 31.8134 22.6182 31.7916C21.3486 30.7739 19.4951 30.9778 18.4771 32.2469C17.4595 33.5162 17.6631 35.3702 18.9326 36.3881C19.0718 36.4999 21.7783 38.6073 26.2368 39.4701L20.0229 45.9644C18.8936 47.1355 18.9272 49.0002 20.0986 50.1296C20.6704 50.6808 21.4072 50.9547 22.1431 50.9547C22.915 50.9547 23.686 50.6532 24.2637 50.0536L30.0366 43.9041L36.3926 50.0935C37.5444 51.2433 39.4092 51.2413 40.5586 50.0902C41.708 48.939 41.7065 47.0739 40.5552 45.9243L34.0083 39.4358Z" fill="#666666" fill-opacity="1.000000" fill-rule="evenodd"/>
</svg>
