<svg width="60.000000" height="60.000000" viewBox="0 0 60 60" fill="none" xmlns="http://www.w3.org/2000/svg" xmlns:xlink="http://www.w3.org/1999/xlink">
	<desc>
			Created with Pixso.
	</desc>
	<defs/>
	<path d="M30 0C13.4321 0 0 13.4314 0 30C0 46.5686 13.4321 60 30 60C46.5679 60 60 46.5686 60 30C60 13.4314 46.5679 0 30 0ZM45.2178 33.2446C46.6157 34.6104 48.0952 35.8956 49.3506 37.4026C49.9067 38.0692 50.4307 38.7584 50.8296 39.5337C51.3994 40.6392 50.8848 41.8514 49.8955 41.9171L43.7495 41.9159C42.1621 42.0472 40.8989 41.4071 39.834 40.3219C38.9839 39.457 38.1948 38.5332 37.376 37.6389C37.0415 37.2719 36.6895 36.9263 36.2695 36.6543C35.4316 36.1093 34.7036 36.2762 34.2236 37.1515C33.7344 38.0421 33.6226 39.0292 33.5762 40.0205C33.5093 41.4697 33.0723 41.8484 31.6182 41.9165C28.5107 42.062 25.563 41.5906 22.8228 40.0242C20.4058 38.6425 18.5347 36.6924 16.9043 34.4845C13.7295 30.1804 11.2983 25.4565 9.11377 20.597C8.62207 19.5026 8.98193 18.9171 10.1895 18.8943C12.1953 18.8557 14.2012 18.8605 16.207 18.8925C17.0234 18.9054 17.5635 19.3725 17.8774 20.1428C18.9614 22.8098 20.29 25.3473 21.9556 27.7007C22.3994 28.3274 22.8521 28.9522 23.4971 29.3948C24.2095 29.8834 24.752 29.7219 25.0879 28.9271C25.3027 28.4219 25.395 27.8817 25.4419 27.3403C25.6016 25.486 25.6206 23.6323 25.3442 21.7854C25.1724 20.6296 24.5225 19.8832 23.3701 19.6647C22.7832 19.5535 22.8691 19.3362 23.1548 19.0011C23.6499 18.4217 24.1143 18.0632 25.0415 18.0632L31.9858 18.062C33.0801 18.2769 33.3257 18.7679 33.4741 19.8703L33.4805 27.5871C33.4673 28.0137 33.6943 29.2781 34.4604 29.5574C35.0742 29.76 35.4795 29.2677 35.8467 28.8792C37.5117 27.112 38.6982 25.0263 39.7607 22.8675C40.23 21.9155 40.6343 20.9304 41.0273 19.9433C41.3193 19.2135 41.7734 18.8544 42.5972 18.8667L49.2842 18.8747C49.481 18.8747 49.6812 18.8765 49.8765 18.9103C51.0034 19.103 51.312 19.588 50.9634 20.6873C50.4146 22.4146 49.3486 23.8533 48.3062 25.2958C47.189 26.8401 45.9976 28.3304 44.8916 29.8815C43.875 31.2994 43.9556 32.0133 45.2178 33.2446Z" fill="#666666" fill-opacity="1.000000" fill-rule="nonzero"/>
</svg>
